<?xml version="1.0" encoding="UTF-8"?>
<svg width="149px" height="30px" viewBox="0 0 149 30" version="1.1" xmlns="http://www.w3.org/2000/svg" xmlns:xlink="http://www.w3.org/1999/xlink">
    <title>编组 3@3x</title>
    <defs>
        <linearGradient x1="26.3671875%" y1="0%" x2="73.6328125%" y2="100%" id="linearGradient-1">
            <stop stop-color="#F7FFFF" offset="0%"></stop>
            <stop stop-color="#8EDBFD" offset="49.4759491%"></stop>
            <stop stop-color="#F85A02" offset="100%"></stop>
        </linearGradient>
        <path d="M16.8,0 C18.4568542,1.39730022e-16 19.8,1.34314575 19.8,3 L19.8,12.493 L11.0742148,12.2319709 C11.0617388,11.4558307 11.0444034,10.8435145 11.0222085,10.3950225 C10.9209956,8.34981738 11.1229449,7.71556753 12.4475712,6.33717877 C13.0136659,5.748108 14.0445289,5.23251212 15.5401601,4.79039113 C15.0716182,4.48524328 14.3044142,4.39647465 13.2385483,4.52408523 L12.9872776,4.55737488 L12.7458261,4.59727701 C10.1088509,5.08769156 8.10967386,7.26523653 7.84585169,9.93442078 L7.82667899,10.178395 L7.28017876,19.5317949 C7.26257691,19.833052 7.13230536,20.1149396 6.91794787,20.3229489 L6.82101559,20.4074136 L6.72952751,20.4788919 C6.402656,20.7342719 6.21448333,21.1281746 6.22122407,21.5429257 L6.25234552,23.4577993 C6.2571696,23.7546203 6.47681486,23.9978432 6.76114099,24.0411793 L6.85810601,24.0480207 L13.3817394,23.9845241 C13.6718316,23.9817006 13.9132631,23.7730418 13.9654532,23.496451 L13.9756481,23.4019272 L14.0255497,21.6793934 C13.8009484,20.8869228 13.2446624,20.543528 12.3566917,20.6492088 C11.4687211,20.7548896 11.0464558,20.2144146 11.0898956,19.0277837 C11.0935688,18.3060284 11.0960289,17.6251683 11.097276,16.9852036 L19.8,16.695 L19.8,25.8 C19.8,27.4568542 18.4568542,28.8 16.8,28.8 L3,28.8 C1.34314575,28.8 6.46995335e-16,27.4568542 0,25.8 L0,3 C2.41183085e-16,1.34314575 1.34314575,-1.02790844e-15 3,0 L16.8,0 Z" id="path-2"></path>
        <linearGradient x1="50%" y1="0%" x2="50%" y2="100%" id="linearGradient-4">
            <stop stop-color="#FFFFFF" offset="0%"></stop>
            <stop stop-color="#D8D8D8" offset="100%"></stop>
        </linearGradient>
        <linearGradient x1="50%" y1="0%" x2="50%" y2="100%" id="linearGradient-5">
            <stop stop-color="#FFFFFF" offset="0%"></stop>
            <stop stop-color="#D8D8D8" offset="100%"></stop>
        </linearGradient>
        <linearGradient x1="0%" y1="42.8000793%" x2="100%" y2="57.1999207%" id="linearGradient-6">
            <stop stop-color="#F7FFFF" offset="0%"></stop>
            <stop stop-color="#8EDBFD" offset="51.3091216%"></stop>
            <stop stop-color="#F85A02" offset="100%"></stop>
        </linearGradient>
    </defs>
    <g id="页面-1" stroke="none" stroke-width="1" fill="none" fill-rule="evenodd">
        <g id="画板备份-12" transform="translate(-360.000000, -36.000000)">
            <g id="编组-3" transform="translate(360.000000, 36.000000)">
                <g id="形状结合备份-3">
                    <mask id="mask-3" fill="white">
                        <use xlink:href="#path-2"></use>
                    </mask>
                    <use id="形状结合" fill="url(#linearGradient-1)" xlink:href="#path-2"></use>
                    <path d="M1.63211316,29.4 L-3,25.3837524 L1.92635243,23.2893207 L0.493201053,16.6074152 L4.98887715,18.3435586 L9.6,12.6 L14.2111228,18.3435586 L18.7067989,16.6074152 L17.2736476,23.2893207 L22.2,25.3837524 L17.5678868,29.4 L1.63211316,29.4 Z" id="形状结合" fill="url(#linearGradient-4)" opacity="0.260532924" mask="url(#mask-3)"></path>
                    <path d="M3.90865226,28.8 L0.6,25.9312517 L4.11882316,24.435229 L3.09514361,19.6624394 L6.30634082,20.9025418 L9.6,16.8 L12.8936592,20.9025418 L16.1048564,19.6624394 L15.0811768,24.435229 L18.6,25.9312517 L15.2913477,28.8 L3.90865226,28.8 Z" id="形状结合" fill="url(#linearGradient-5)" opacity="0.260532924" mask="url(#mask-3)"></path>
                </g>
                <g id="编组备份" transform="translate(25.200000, 1.200000)">
                    <text id="Castable" font-family=".AppleSystemUIFont" font-size="19.584" font-weight="normal" fill="#FFFFFF">
                        <tspan x="0" y="19">Castable</tspan>
                    </text>
                    <path d="M88.255104,22.8 L88.255104,14.08512 L94.756992,22.8 L97.44,22.8 L97.44,8.464512 L94.384896,8.464512 L94.384896,17.159808 L87.883008,8.464512 L85.2,8.464512 L85.2,22.8 L88.255104,22.8 Z M103.60896,22.8 L103.60896,17.4144 L109.209984,17.4144 L109.209984,14.515968 L103.60896,14.515968 L103.60896,11.382528 L109.856256,11.382528 L109.856256,8.464512 L100.260096,8.464512 L100.260096,22.8 L103.60896,22.8 Z M118.669056,22.8 L118.669056,11.421696 L122.977536,11.421696 L122.977536,8.464512 L111.031296,8.464512 L111.031296,11.421696 L115.339776,11.421696 L115.339776,22.8 L118.669056,22.8 Z" id="NFT" fill="url(#linearGradient-6)"></path>
                </g>
            </g>
        </g>
    </g>
</svg>