<?xml version="1.0" encoding="UTF-8"?>
<svg width="149px" height="29px" viewBox="0 0 149 29" version="1.1" xmlns="http://www.w3.org/2000/svg" xmlns:xlink="http://www.w3.org/1999/xlink">
    <!-- Generator: Sketch 63.1 (92452) - https://sketch.com -->
    <title>编组 3备份</title>
    <desc>Created with Sketch.</desc>
    <defs>
        <linearGradient x1="26.3671875%" y1="0%" x2="73.6328125%" y2="100%" id="linearGradient-1">
            <stop stop-color="#F7FFFF" offset="0%"></stop>
            <stop stop-color="#8EDBFD" offset="49.4759491%"></stop>
            <stop stop-color="#F85A02" offset="100%"></stop>
        </linearGradient>
        <path d="M16.8,0 C18.4568542,1.39730022e-16 19.8,1.34314575 19.8,3 L19.8,12.493 L11.0742148,12.2319709 C11.0617388,11.4558307 11.0444034,10.8435145 11.0222085,10.3950225 C10.9209956,8.34981738 11.1229449,7.71556753 12.4475712,6.33717877 C13.0136659,5.748108 14.0445289,5.23251212 15.5401601,4.79039113 C15.0716182,4.48524328 14.3044142,4.39647465 13.2385483,4.52408523 L12.9872776,4.55737488 L12.7458261,4.59727701 C10.1088509,5.08769156 8.10967386,7.26523653 7.84585169,9.93442078 L7.82667899,10.178395 L7.28017876,19.5317949 C7.26257691,19.833052 7.13230536,20.1149396 6.91794787,20.3229489 L6.82101559,20.4074136 L6.72952751,20.4788919 C6.402656,20.7342719 6.21448333,21.1281746 6.22122407,21.5429257 L6.25234552,23.4577993 C6.2571696,23.7546203 6.47681486,23.9978432 6.76114099,24.0411793 L6.85810601,24.0480207 L13.3817394,23.9845241 C13.6718316,23.9817006 13.9132631,23.7730418 13.9654532,23.496451 L13.9756481,23.4019272 L14.0255497,21.6793934 C13.8009484,20.8869228 13.2446624,20.543528 12.3566917,20.6492088 C11.4687211,20.7548896 11.0464558,20.2144146 11.0898956,19.0277837 C11.0935688,18.3060284 11.0960289,17.6251683 11.097276,16.9852036 L19.8,16.695 L19.8,25.8 C19.8,27.4568542 18.4568542,28.8 16.8,28.8 L3,28.8 C1.34314575,28.8 6.46995335e-16,27.4568542 0,25.8 L0,3 C2.41183085e-16,1.34314575 1.34314575,-1.47199765e-15 3,0 L16.8,0 Z" id="path-2"></path>
        <linearGradient x1="50%" y1="0%" x2="50%" y2="100%" id="linearGradient-4">
            <stop stop-color="#FFFFFF" offset="0%"></stop>
            <stop stop-color="#D8D8D8" offset="100%"></stop>
        </linearGradient>
        <linearGradient x1="50%" y1="0%" x2="50%" y2="100%" id="linearGradient-5">
            <stop stop-color="#FFFFFF" offset="0%"></stop>
            <stop stop-color="#D8D8D8" offset="100%"></stop>
        </linearGradient>
        <linearGradient x1="0%" y1="42.8000793%" x2="100%" y2="57.1999207%" id="linearGradient-6">
            <stop stop-color="#F7FFFF" offset="0%"></stop>
            <stop stop-color="#8EDBFD" offset="51.3091216%"></stop>
            <stop stop-color="#F85A02" offset="100%"></stop>
        </linearGradient>
    </defs>
    <g id="页面-1" stroke="none" stroke-width="1" fill="none" fill-rule="evenodd">
        <g id="编组-3备份">
            <g id="形状结合备份-3">
                <mask id="mask-3" fill="white">
                    <use xlink:href="#path-2"></use>
                </mask>
                <use id="形状结合" fill="url(#linearGradient-1)" xlink:href="#path-2"></use>
                <path d="M1.63211316,29.4 L-3,25.3837524 L1.92635243,23.2893207 L0.493201053,16.6074152 L4.98887715,18.3435586 L9.6,12.6 L14.2111228,18.3435586 L18.7067989,16.6074152 L17.2736476,23.2893207 L22.2,25.3837524 L17.5678868,29.4 L1.63211316,29.4 Z" id="形状结合" fill="url(#linearGradient-4)" opacity="0.260532924" mask="url(#mask-3)"></path>
                <path d="M3.90865226,28.8 L0.6,25.9312517 L4.11882316,24.435229 L3.09514361,19.6624394 L6.30634082,20.9025418 L9.6,16.8 L12.8936592,20.9025418 L16.1048564,19.6624394 L15.0811768,24.435229 L18.6,25.9312517 L15.2913477,28.8 L3.90865226,28.8 Z" id="形状结合" fill="url(#linearGradient-5)" opacity="0.260532924" mask="url(#mask-3)"></path>
            </g>
            <g id="编组备份" transform="translate(25.200000, 1.200000)">
                <path d="M7.774848,23.254592 C8.71488,23.254592 9.566784,23.09792 10.33056,22.784576 C11.094336,22.471232 11.730816,22.050176 12.24,21.521408 C12.749184,20.99264 13.108224,20.414912 13.31712,19.788224 L13.31712,19.788224 L10.516608,18.143168 C9.929088,19.500992 8.989056,20.179904 7.696512,20.179904 C7.056768,20.179904 6.47904,20.006912 5.963328,19.660928 C5.447616,19.314944 5.036352,18.809024 4.729536,18.143168 C4.42272,17.477312 4.269312,16.70048 4.269312,15.812672 C4.269312,14.924864 4.42272,14.151296 4.729536,13.491968 C5.036352,12.83264 5.447616,12.329984 5.963328,11.984 C6.47904,11.638016 7.056768,11.465024 7.696512,11.465024 C8.989056,11.465024 9.929088,12.143936 10.516608,13.50176 L10.516608,13.50176 L13.31712,11.856704 C13.108224,11.230016 12.749184,10.652288 12.24,10.12352 C11.730816,9.594752 11.094336,9.173696 10.33056,8.860352 C9.566784,8.547008 8.71488,8.390336 7.774848,8.390336 C6.482304,8.390336 5.300736,8.697152 4.230144,9.310784 C3.159552,9.924416 2.310912,10.79264 1.684224,11.915456 C1.057536,13.038272 0.744192,14.337344 0.744192,15.812672 C0.744192,17.288 1.057536,18.590336 1.684224,19.71968 C2.310912,20.849024 3.159552,21.720512 4.230144,22.334144 C5.300736,22.947776 6.482304,23.254592 7.774848,23.254592 Z M18.173952,23.254592 C18.852864,23.254592 19.414272,23.143616 19.858176,22.921664 C20.30208,22.699712 20.680704,22.360256 20.994048,21.903296 C21.02016,22.08608 21.065856,22.451648 21.131136,23 L21.131136,23 L23.814144,23 L23.814144,17.281472 C23.814144,15.793088 23.415936,14.640896 22.61952,13.824896 C21.823104,13.008896 20.69376,12.600896 19.231488,12.600896 C18.173952,12.600896 17.25024,12.822848 16.460352,13.266752 C15.670464,13.710656 15.086208,14.31776 14.707584,15.088064 L14.707584,15.088064 L16.959744,16.400192 C17.36448,15.564608 18.01728,15.146816 18.918144,15.146816 C19.988736,15.146816 20.569728,15.78656 20.66112,17.066048 C19.969152,16.817984 19.264128,16.693952 18.546048,16.693952 C17.775744,16.693952 17.064192,16.83104 16.411392,17.105216 C15.758592,17.379392 15.239616,17.774336 14.854464,18.290048 C14.469312,18.80576 14.276736,19.403072 14.276736,20.081984 C14.276736,20.734784 14.449728,21.299456 14.795712,21.776 C15.141696,22.252544 15.611712,22.618112 16.20576,22.872704 C16.799808,23.127296 17.455872,23.254592 18.173952,23.254592 Z M18.722304,20.884928 C18.356736,20.884928 18.056448,20.800064 17.82144,20.630336 C17.586432,20.460608 17.468928,20.2256 17.468928,19.925312 C17.468928,19.598912 17.6256,19.337792 17.938944,19.141952 C18.252288,18.946112 18.676608,18.848192 19.211904,18.848192 C19.668864,18.848192 20.151936,18.913472 20.66112,19.044032 L20.66112,19.044032 L20.66112,19.298624 C20.66112,19.781696 20.462016,20.166848 20.063808,20.45408 C19.6656,20.741312 19.218432,20.884928 18.722304,20.884928 Z M29.434752,23.254592 C30.71424,23.254592 31.761984,22.964096 32.577984,22.383104 C33.393984,21.802112 33.801984,20.989376 33.801984,19.944896 C33.801984,19.292096 33.632256,18.763328 33.2928,18.358592 C32.953344,17.953856 32.548608,17.64704 32.078592,17.438144 C31.608576,17.229248 31.034112,17.033408 30.3552,16.850624 C29.741568,16.66784 29.300928,16.511168 29.03328,16.380608 C28.765632,16.250048 28.631808,16.060736 28.631808,15.812672 C28.631808,15.616832 28.719936,15.456896 28.896192,15.332864 C29.072448,15.208832 29.317248,15.146816 29.630592,15.146816 C30.45312,15.146816 31.053696,15.55808 31.43232,16.380608 L31.43232,16.380608 L33.743232,15.088064 C33.547392,14.343872 33.083904,13.743296 32.352768,13.286336 C31.621632,12.829376 30.720768,12.600896 29.650176,12.600896 C28.879872,12.600896 28.16832,12.73472 27.51552,13.002368 C26.86272,13.270016 26.34048,13.661696 25.9488,14.177408 C25.55712,14.69312 25.36128,15.303488 25.36128,16.008512 C25.36128,16.622144 25.52448,17.121536 25.85088,17.506688 C26.17728,17.89184 26.565696,18.182336 27.016128,18.378176 C27.46656,18.574016 28.03776,18.769856 28.729728,18.965696 C29.369472,19.161536 29.829696,19.331264 30.1104,19.47488 C30.391104,19.618496 30.531456,19.814336 30.531456,20.0624 C30.531456,20.271296 30.433536,20.431232 30.237696,20.542208 C30.041856,20.653184 29.780736,20.708672 29.454336,20.708672 C28.932096,20.708672 28.471872,20.581376 28.073664,20.326784 C27.675456,20.072192 27.391488,19.716416 27.22176,19.259456 L27.22176,19.259456 L24.910848,20.610752 C25.211136,21.43328 25.766016,22.079552 26.575488,22.549568 C27.38496,23.019584 28.338048,23.254592 29.434752,23.254592 Z M39.912192,23.254592 C41.243904,23.254592 42.275328,22.928192 43.006464,22.275392 L43.006464,22.275392 L41.890176,20.0624 C41.459328,20.362688 41.021952,20.512832 40.578048,20.512832 C40.029696,20.512832 39.6576,20.333312 39.46176,19.974272 C39.26592,19.615232 39.168,19.109312 39.168,18.456512 L39.168,18.456512 L39.168,15.55808 L42.262272,15.55808 L42.262272,12.875072 L39.168,12.875072 L39.168,9.624128 L35.975808,9.624128 L35.975808,12.875072 L34.115328,12.875072 L34.115328,15.55808 L35.975808,15.55808 L35.975808,19.024448 C35.975808,20.604224 36.334848,21.704192 37.052928,22.324352 C37.771008,22.944512 38.724096,23.254592 39.912192,23.254592 Z M47.432448,23.254592 C48.11136,23.254592 48.672768,23.143616 49.116672,22.921664 C49.560576,22.699712 49.9392,22.360256 50.252544,21.903296 C50.278656,22.08608 50.324352,22.451648 50.389632,23 L50.389632,23 L53.07264,23 L53.07264,17.281472 C53.07264,15.793088 52.674432,14.640896 51.878016,13.824896 C51.0816,13.008896 49.952256,12.600896 48.489984,12.600896 C47.432448,12.600896 46.508736,12.822848 45.718848,13.266752 C44.92896,13.710656 44.344704,14.31776 43.96608,15.088064 L43.96608,15.088064 L46.21824,16.400192 C46.622976,15.564608 47.275776,15.146816 48.17664,15.146816 C49.247232,15.146816 49.828224,15.78656 49.919616,17.066048 C49.227648,16.817984 48.522624,16.693952 47.804544,16.693952 C47.03424,16.693952 46.322688,16.83104 45.669888,17.105216 C45.017088,17.379392 44.498112,17.774336 44.11296,18.290048 C43.727808,18.80576 43.535232,19.403072 43.535232,20.081984 C43.535232,20.734784 43.708224,21.299456 44.054208,21.776 C44.400192,22.252544 44.870208,22.618112 45.464256,22.872704 C46.058304,23.127296 46.714368,23.254592 47.432448,23.254592 Z M47.9808,20.884928 C47.615232,20.884928 47.314944,20.800064 47.079936,20.630336 C46.844928,20.460608 46.727424,20.2256 46.727424,19.925312 C46.727424,19.598912 46.884096,19.337792 47.19744,19.141952 C47.510784,18.946112 47.935104,18.848192 48.4704,18.848192 C48.92736,18.848192 49.410432,18.913472 49.919616,19.044032 L49.919616,19.044032 L49.919616,19.298624 C49.919616,19.781696 49.720512,20.166848 49.322304,20.45408 C48.924096,20.741312 48.476928,20.884928 47.9808,20.884928 Z M61.415424,23.254592 C62.251008,23.254592 63.018048,23.042432 63.716544,22.618112 C64.41504,22.193792 64.96992,21.58016 65.381184,20.777216 C65.792448,19.974272 65.99808,19.024448 65.99808,17.927744 C65.99808,16.817984 65.792448,15.861632 65.381184,15.058688 C64.96992,14.255744 64.41504,13.645376 63.716544,13.227584 C63.018048,12.809792 62.251008,12.600896 61.415424,12.600896 C60.135936,12.600896 59.137152,13.064384 58.419072,13.99136 L58.419072,13.99136 L58.419072,8.096576 L55.22688,8.096576 L55.22688,23 L58.06656,23 C58.092672,22.54304 58.138368,22.066496 58.203648,21.570368 C58.569216,22.131776 59.026176,22.552832 59.574528,22.833536 C60.12288,23.11424 60.736512,23.254592 61.415424,23.254592 Z M60.592896,20.571584 C59.979264,20.571584 59.463552,20.343104 59.04576,19.886144 C58.627968,19.429184 58.419072,18.776384 58.419072,17.927744 C58.419072,17.09216 58.627968,16.462208 59.04576,16.037888 C59.463552,15.613568 59.979264,15.401408 60.592896,15.401408 C61.23264,15.401408 61.745088,15.626624 62.13024,16.077056 C62.515392,16.527488 62.707968,17.144384 62.707968,17.927744 C62.707968,18.72416 62.512128,19.363904 62.120448,19.846976 C61.728768,20.330048 61.219584,20.571584 60.592896,20.571584 Z M70.952832,23 L70.952832,8.096576 L67.76064,8.096576 L67.76064,23 L70.952832,23 Z M77.963904,23.254592 C78.95616,23.254592 79.850496,23.045696 80.646912,22.627904 C81.443328,22.210112 81.985152,21.616064 82.272384,20.84576 L82.272384,20.84576 L79.941888,19.455296 C79.785216,19.83392 79.540416,20.121152 79.207488,20.316992 C78.87456,20.512832 78.4992,20.610752 78.081408,20.610752 C77.572224,20.610752 77.141376,20.457344 76.788864,20.150528 C76.436352,19.843712 76.188288,19.4096 76.044672,18.848192 L76.044672,18.848192 L82.526976,18.848192 C82.605312,18.378176 82.64448,17.934272 82.64448,17.51648 C82.64448,16.524224 82.44864,15.656 82.05696,14.911808 C81.66528,14.167616 81.113664,13.596416 80.402112,13.198208 C79.69056,12.8 78.871296,12.600896 77.94432,12.600896 C77.0304,12.600896 76.175232,12.8 75.378816,13.198208 C74.5824,13.596416 73.939392,14.193728 73.449792,14.990144 C72.960192,15.78656 72.715392,16.752704 72.715392,17.888576 C72.715392,19.037504 72.960192,20.016704 73.449792,20.826176 C73.939392,21.635648 74.585664,22.242752 75.388608,22.647488 C76.191552,23.052224 77.049984,23.254592 77.963904,23.254592 Z M79.41312,16.674368 L76.044672,16.674368 C76.188288,16.191296 76.413504,15.815936 76.72032,15.548288 C77.027136,15.28064 77.402496,15.146816 77.8464,15.146816 C78.264192,15.146816 78.616704,15.277376 78.903936,15.538496 C79.191168,15.799616 79.360896,16.17824 79.41312,16.674368 L79.41312,16.674368 Z" id="Castable" fill="#FFFFFF" fill-rule="nonzero"></path>
                <path d="M88.255104,22.8 L88.255104,14.08512 L94.756992,22.8 L97.44,22.8 L97.44,8.464512 L94.384896,8.464512 L94.384896,17.159808 L87.883008,8.464512 L85.2,8.464512 L85.2,22.8 L88.255104,22.8 Z M103.60896,22.8 L103.60896,17.4144 L109.209984,17.4144 L109.209984,14.515968 L103.60896,14.515968 L103.60896,11.382528 L109.856256,11.382528 L109.856256,8.464512 L100.260096,8.464512 L100.260096,22.8 L103.60896,22.8 Z M118.669056,22.8 L118.669056,11.421696 L122.977536,11.421696 L122.977536,8.464512 L111.031296,8.464512 L111.031296,11.421696 L115.339776,11.421696 L115.339776,22.8 L118.669056,22.8 Z" id="NFT" fill="url(#linearGradient-6)"></path>
            </g>
        </g>
    </g>
</svg>