<?xml version="1.0" encoding="UTF-8"?>
<svg width="48px" height="48px" viewBox="0 0 48 48" version="1.1" xmlns="http://www.w3.org/2000/svg" xmlns:xlink="http://www.w3.org/1999/xlink">
    <title>拖拽@3x</title>
    <g id="控件" stroke="none" stroke-width="1" fill="none" fill-rule="evenodd" fill-opacity="0.38">
        <g id="数据录入/上传/亮色/拖拽上传" transform="translate(-266.000000, -24.000000)" fill="#000000" fill-rule="nonzero">
            <g id="拖拽" transform="translate(266.000000, 24.000000)">
                <path d="M40.0714286,6 C42.2411187,6 44,7.75211641 44,9.91346154 L44,9.91346154 L44,12.0480769 C44,13.8393934 42.7918164,15.3496088 41.142913,15.8142111 L41.1428571,38.0234809 C41.1347031,40.7410795 38.947186,42.9472779 36.2254945,42.999091 L11.8528763,43 C9.12478508,42.9918773 6.91006856,40.8127738 6.85805533,38.1015502 L6.85714286,38.0192308 L6.857087,15.8142111 C5.20818358,15.3496088 4,13.8393934 4,12.0480769 L4,12.0480769 L4,9.91346154 C4,7.75211641 5.75888134,6 7.92857143,6 L7.92857143,6 Z M38.285,15.961 L9.714,15.961 L9.71427934,38.0149807 C9.71778115,39.1829863 10.6579613,40.1311956 11.8218071,40.1534558 L36.1385906,40.1538525 C37.311106,40.1503642 38.2629763,39.2138 38.2853224,38.0544306 L38.285,15.961 Z M24,20.2307692 C24.7795856,20.2307692 25.4133218,20.8528229 25.4283003,21.6258408 L25.428,31.026 L28.7041332,27.7629634 C29.262025,27.2072173 30.1665464,27.2072173 30.7244383,27.7629634 C31.2745816,28.3109908 31.2822225,29.1947897 30.7473609,29.752144 L30.7244383,29.7754981 L25.0101525,35.4678058 C24.4600092,36.0158332 23.572798,36.0234447 23.0132917,35.4906403 L22.9898475,35.4678058 L17.2755617,29.7754981 C16.7176699,29.219752 16.7176699,28.3187095 17.2755617,27.7629634 C17.8257051,27.214936 18.7129163,27.2073245 19.2724226,27.740129 L19.2958668,27.7629634 L22.571,31.025 L22.5714286,21.6538462 C22.5714286,20.8679025 23.2110218,20.2307692 24,20.2307692 Z M40.0714286,8.84615385 L7.92857143,8.84615385 C7.33683777,8.84615385 6.85714286,9.32400378 6.85714286,9.91346154 L6.85714286,9.91346154 L6.85714286,12.0480769 C6.85714286,12.6375347 7.33683777,13.1153846 7.92857143,13.1153846 L7.92857143,13.1153846 L40.0714286,13.1153846 C40.6631622,13.1153846 41.1428571,12.6375347 41.1428571,12.0480769 L41.1428571,12.0480769 L41.1428571,9.91346154 C41.1428571,9.32400378 40.6631622,8.84615385 40.0714286,8.84615385 L40.0714286,8.84615385 Z" id="形状结合"></path>
            </g>
        </g>
    </g>
</svg>