<?xml version="1.0" encoding="UTF-8" standalone="no"?>
<!DOCTYPE svg PUBLIC "-//W3C//DTD SVG 1.1//EN" "http://www.w3.org/Graphics/SVG/1.1/DTD/svg11.dtd">
<svg width="100%" height="100%" viewBox="0 0 149 29" version="1.1" xmlns="http://www.w3.org/2000/svg" xmlns:xlink="http://www.w3.org/1999/xlink" xml:space="preserve" xmlns:serif="http://www.serif.com/" style="fill-rule:evenodd;clip-rule:evenodd;stroke-linejoin:round;stroke-miterlimit:2;">
    <g transform="matrix(1.56842,0,0,1.07407,-84.6947,-2.14815)">
        <rect x="54" y="2" width="95" height="27" style="fill-opacity:0.24;"/>
    </g>
    <g id="页面-1">
        <g id="编组-3备份">
            <g id="形状结合备份-3">
                <path id="形状结合" d="M16.8,0C18.457,0 19.8,1.343 19.8,3L19.8,12.493L11.074,12.232C11.062,11.456 11.044,10.844 11.022,10.395C10.921,8.35 11.123,7.716 12.448,6.337C13.014,5.748 14.045,5.233 15.54,4.79C15.072,4.485 14.304,4.396 13.239,4.524L12.987,4.557L12.746,4.597C10.109,5.088 8.11,7.265 7.846,9.934L7.827,10.178L7.28,19.532C7.263,19.833 7.132,20.115 6.918,20.323L6.821,20.407L6.73,20.479C6.403,20.734 6.214,21.128 6.221,21.543L6.252,23.458C6.257,23.755 6.477,23.998 6.761,24.041L6.858,24.048L13.382,23.985C13.672,23.982 13.913,23.773 13.965,23.496L13.976,23.402L14.026,21.679C13.801,20.887 13.245,20.544 12.357,20.649C11.469,20.755 11.046,20.214 11.09,19.028C11.094,18.306 11.096,17.625 11.097,16.985L19.8,16.695L19.8,25.8C19.8,27.457 18.457,28.8 16.8,28.8L3,28.8C1.343,28.8 0,27.457 0,25.8L0,3C0,1.343 1.343,-0 3,0L16.8,0Z" style="fill:url(#_Linear1);"/>
                <path id="形状结合1" serif:id="形状结合" d="M1.632,29.4L-3,25.384L1.926,23.289L0.493,16.607L4.989,18.344L9.6,12.6L14.211,18.344L18.707,16.607L17.274,23.289L22.2,25.384L17.568,29.4L1.632,29.4Z" style="fill:url(#_Linear2);"/>
                <path id="形状结合2" serif:id="形状结合" d="M3.909,28.8L0.6,25.931L4.119,24.435L3.095,19.662L6.306,20.903L9.6,16.8L12.894,20.903L16.105,19.662L15.081,24.435L18.6,25.931L15.291,28.8L3.909,28.8Z" style="fill:url(#_Linear3);"/>
            </g>
            <g id="编组备份" transform="matrix(1,0,0,1,25.2,1.2)">
                <path id="Castable" d="M7.775,23.255C8.715,23.255 9.567,23.098 10.331,22.785C11.094,22.471 11.731,22.05 12.24,21.521C12.749,20.993 13.108,20.415 13.317,19.788L10.517,18.143C9.929,19.501 8.989,20.18 7.697,20.18C7.057,20.18 6.479,20.007 5.963,19.661C5.448,19.315 5.036,18.809 4.73,18.143C4.423,17.477 4.269,16.7 4.269,15.813C4.269,14.925 4.423,14.151 4.73,13.492C5.036,12.833 5.448,12.33 5.963,11.984C6.479,11.638 7.057,11.465 7.697,11.465C8.989,11.465 9.929,12.144 10.517,13.502L13.317,11.857C13.108,11.23 12.749,10.652 12.24,10.124C11.731,9.595 11.094,9.174 10.331,8.86C9.567,8.547 8.715,8.39 7.775,8.39C6.482,8.39 5.301,8.697 4.23,9.311C3.16,9.924 2.311,10.793 1.684,11.915C1.058,13.038 0.744,14.337 0.744,15.813C0.744,17.288 1.058,18.59 1.684,19.72C2.311,20.849 3.16,21.721 4.23,22.334C5.301,22.948 6.482,23.255 7.775,23.255ZM18.174,23.255C18.853,23.255 19.414,23.144 19.858,22.922C20.302,22.7 20.681,22.36 20.994,21.903C21.02,22.086 21.066,22.452 21.131,23L23.814,23L23.814,17.281C23.814,15.793 23.416,14.641 22.62,13.825C21.823,13.009 20.694,12.601 19.231,12.601C18.174,12.601 17.25,12.823 16.46,13.267C15.67,13.711 15.086,14.318 14.708,15.088L16.96,16.4C17.364,15.565 18.017,15.147 18.918,15.147C19.989,15.147 20.57,15.787 20.661,17.066C19.969,16.818 19.264,16.694 18.546,16.694C17.776,16.694 17.064,16.831 16.411,17.105C15.759,17.379 15.24,17.774 14.854,18.29C14.469,18.806 14.277,19.403 14.277,20.082C14.277,20.735 14.45,21.299 14.796,21.776C15.142,22.253 15.612,22.618 16.206,22.873C16.8,23.127 17.456,23.255 18.174,23.255ZM18.722,20.885C18.357,20.885 18.056,20.8 17.821,20.63C17.586,20.461 17.469,20.226 17.469,19.925C17.469,19.599 17.626,19.338 17.939,19.142C18.252,18.946 18.677,18.848 19.212,18.848C19.669,18.848 20.152,18.913 20.661,19.044L20.661,19.299C20.661,19.782 20.462,20.167 20.064,20.454C19.666,20.741 19.218,20.885 18.722,20.885ZM29.435,23.255C30.714,23.255 31.762,22.964 32.578,22.383C33.394,21.802 33.802,20.989 33.802,19.945C33.802,19.292 33.632,18.763 33.293,18.359C32.953,17.954 32.549,17.647 32.079,17.438C31.609,17.229 31.034,17.033 30.355,16.851C29.742,16.668 29.301,16.511 29.033,16.381C28.766,16.25 28.632,16.061 28.632,15.813C28.632,15.617 28.72,15.457 28.896,15.333C29.072,15.209 29.317,15.147 29.631,15.147C30.453,15.147 31.054,15.558 31.432,16.381L33.743,15.088C33.547,14.344 33.084,13.743 32.353,13.286C31.622,12.829 30.721,12.601 29.65,12.601C28.88,12.601 28.168,12.735 27.516,13.002C26.863,13.27 26.34,13.662 25.949,14.177C25.557,14.693 25.361,15.303 25.361,16.009C25.361,16.622 25.524,17.122 25.851,17.507C26.177,17.892 26.566,18.182 27.016,18.378C27.467,18.574 28.038,18.77 28.73,18.966C29.369,19.162 29.83,19.331 30.11,19.475C30.391,19.618 30.531,19.814 30.531,20.062C30.531,20.271 30.434,20.431 30.238,20.542C30.042,20.653 29.781,20.709 29.454,20.709C28.932,20.709 28.472,20.581 28.074,20.327C27.675,20.072 27.391,19.716 27.222,19.259L24.911,20.611C25.211,21.433 25.766,22.08 26.575,22.55C27.385,23.02 28.338,23.255 29.435,23.255ZM39.912,23.255C41.244,23.255 42.275,22.928 43.006,22.275L41.89,20.062C41.459,20.363 41.022,20.513 40.578,20.513C40.03,20.513 39.658,20.333 39.462,19.974C39.266,19.615 39.168,19.109 39.168,18.457L39.168,15.558L42.262,15.558L42.262,12.875L39.168,12.875L39.168,9.624L35.976,9.624L35.976,12.875L34.115,12.875L34.115,15.558L35.976,15.558L35.976,19.024C35.976,20.604 36.335,21.704 37.053,22.324C37.771,22.945 38.724,23.255 39.912,23.255ZM47.432,23.255C48.111,23.255 48.673,23.144 49.117,22.922C49.561,22.7 49.939,22.36 50.253,21.903C50.279,22.086 50.324,22.452 50.39,23L53.073,23L53.073,17.281C53.073,15.793 52.674,14.641 51.878,13.825C51.082,13.009 49.952,12.601 48.49,12.601C47.432,12.601 46.509,12.823 45.719,13.267C44.929,13.711 44.345,14.318 43.966,15.088L46.218,16.4C46.623,15.565 47.276,15.147 48.177,15.147C49.247,15.147 49.828,15.787 49.92,17.066C49.228,16.818 48.523,16.694 47.805,16.694C47.034,16.694 46.323,16.831 45.67,17.105C45.017,17.379 44.498,17.774 44.113,18.29C43.728,18.806 43.535,19.403 43.535,20.082C43.535,20.735 43.708,21.299 44.054,21.776C44.4,22.253 44.87,22.618 45.464,22.873C46.058,23.127 46.714,23.255 47.432,23.255ZM47.981,20.885C47.615,20.885 47.315,20.8 47.08,20.63C46.845,20.461 46.727,20.226 46.727,19.925C46.727,19.599 46.884,19.338 47.197,19.142C47.511,18.946 47.935,18.848 48.47,18.848C48.927,18.848 49.41,18.913 49.92,19.044L49.92,19.299C49.92,19.782 49.721,20.167 49.322,20.454C48.924,20.741 48.477,20.885 47.981,20.885ZM61.415,23.255C62.251,23.255 63.018,23.042 63.717,22.618C64.415,22.194 64.97,21.58 65.381,20.777C65.792,19.974 65.998,19.024 65.998,17.928C65.998,16.818 65.792,15.862 65.381,15.059C64.97,14.256 64.415,13.645 63.717,13.228C63.018,12.81 62.251,12.601 61.415,12.601C60.136,12.601 59.137,13.064 58.419,13.991L58.419,8.097L55.227,8.097L55.227,23L58.067,23C58.093,22.543 58.138,22.066 58.204,21.57C58.569,22.132 59.026,22.553 59.575,22.834C60.123,23.114 60.737,23.255 61.415,23.255ZM60.593,20.572C59.979,20.572 59.464,20.343 59.046,19.886C58.628,19.429 58.419,18.776 58.419,17.928C58.419,17.092 58.628,16.462 59.046,16.038C59.464,15.614 59.979,15.401 60.593,15.401C61.233,15.401 61.745,15.627 62.13,16.077C62.515,16.527 62.708,17.144 62.708,17.928C62.708,18.724 62.512,19.364 62.12,19.847C61.729,20.33 61.22,20.572 60.593,20.572ZM70.953,23L70.953,8.097L67.761,8.097L67.761,23L70.953,23ZM77.964,23.255C78.956,23.255 79.85,23.046 80.647,22.628C81.443,22.21 81.985,21.616 82.272,20.846L79.942,19.455C79.785,19.834 79.54,20.121 79.207,20.317C78.875,20.513 78.499,20.611 78.081,20.611C77.572,20.611 77.141,20.457 76.789,20.151C76.436,19.844 76.188,19.41 76.045,18.848L82.527,18.848C82.605,18.378 82.644,17.934 82.644,17.516C82.644,16.524 82.449,15.656 82.057,14.912C81.665,14.168 81.114,13.596 80.402,13.198C79.691,12.8 78.871,12.601 77.944,12.601C77.03,12.601 76.175,12.8 75.379,13.198C74.582,13.596 73.939,14.194 73.45,14.99C72.96,15.787 72.715,16.753 72.715,17.889C72.715,19.038 72.96,20.017 73.45,20.826C73.939,21.636 74.586,22.243 75.389,22.647C76.192,23.052 77.05,23.255 77.964,23.255ZM79.413,16.674L76.045,16.674C76.188,16.191 76.414,15.816 76.72,15.548C77.027,15.281 77.402,15.147 77.846,15.147C78.264,15.147 78.617,15.277 78.904,15.538C79.191,15.8 79.361,16.178 79.413,16.674Z" style="fill:white;fill-rule:nonzero;"/>
                <path id="NFT" d="M88.255,22.8L88.255,14.085L94.757,22.8L97.44,22.8L97.44,8.465L94.385,8.465L94.385,17.16L87.883,8.465L85.2,8.465L85.2,22.8L88.255,22.8ZM103.609,22.8L103.609,17.414L109.21,17.414L109.21,14.516L103.609,14.516L103.609,11.383L109.856,11.383L109.856,8.465L100.26,8.465L100.26,22.8L103.609,22.8ZM118.669,22.8L118.669,11.422L122.978,11.422L122.978,8.465L111.031,8.465L111.031,11.422L115.34,11.422L115.34,22.8L118.669,22.8Z" style="fill:url(#_Linear4);"/>
            </g>
        </g>
    </g>
    <defs>
        <linearGradient id="_Linear1" x1="0" y1="0" x2="1" y2="0" gradientUnits="userSpaceOnUse" gradientTransform="matrix(9.35859,28.8,-28.8,9.35859,5.2207,-1.15364e-30)"><stop offset="0" style="stop-color:rgb(247,255,255);stop-opacity:1"/><stop offset="0.49" style="stop-color:rgb(142,219,253);stop-opacity:1"/><stop offset="1" style="stop-color:rgb(248,90,2);stop-opacity:1"/></linearGradient>
        <linearGradient id="_Linear2" x1="0" y1="0" x2="1" y2="0" gradientUnits="userSpaceOnUse" gradientTransform="matrix(1.0287e-15,16.8,-16.8,1.0287e-15,9.6,12.6)"><stop offset="0" style="stop-color:white;stop-opacity:0.26"/><stop offset="1" style="stop-color:rgb(216,216,216);stop-opacity:0.26"/></linearGradient>
        <linearGradient id="_Linear3" x1="0" y1="0" x2="1" y2="0" gradientUnits="userSpaceOnUse" gradientTransform="matrix(7.34788e-16,12,-12,7.34788e-16,9.6,16.8)"><stop offset="0" style="stop-color:white;stop-opacity:0.26"/><stop offset="1" style="stop-color:rgb(216,216,216);stop-opacity:0.26"/></linearGradient>
        <linearGradient id="_Linear4" x1="0" y1="0" x2="1" y2="0" gradientUnits="userSpaceOnUse" gradientTransform="matrix(37.7775,2.06429,-2.06429,37.7775,85.2,14.6001)"><stop offset="0" style="stop-color:rgb(247,255,255);stop-opacity:1"/><stop offset="0.51" style="stop-color:rgb(142,219,253);stop-opacity:1"/><stop offset="1" style="stop-color:rgb(248,90,2);stop-opacity:1"/></linearGradient>
    </defs>
</svg>
